<svg width="40" height="40" viewBox="0 0 40 40" fill="none" xmlns="http://www.w3.org/2000/svg">
<path d="M32.5544 31.3663H7.44549C6.93064 31.3663 6.495 31.802 6.495 32.3168C6.495 32.8317 6.93064 33.2673 7.44549 33.2673H32.5544C33.0693 33.2673 33.5049 32.8317 33.5049 32.3168C33.5049 31.802 33.0693 31.3663 32.5544 31.3663ZM6.5346 23.0495L6.495 27.5247C6.495 27.7624 6.5742 28.0396 6.77222 28.198C6.97024 28.3564 7.20787 28.4752 7.44549 28.4752L11.9207 28.4356C12.1584 28.4356 12.396 28.3168 12.594 28.1584L27.9603 12.7921C28.3168 12.4356 28.3168 11.802 27.9603 11.4455L23.5247 7.00988C23.1683 6.65344 22.5346 6.65344 22.1782 7.00988L19.0891 10.099L6.81183 22.3762C6.61381 22.5742 6.5346 22.8119 6.5346 23.0495ZM25.9405 12.1188L24.198 13.8614L21.1089 10.7723L22.8514 9.02968L25.9405 12.1188ZM8.43559 23.4455L19.7623 12.1188L22.8514 15.2079L11.5247 26.5346H8.43559V23.4455Z" fill="black"/>
</svg>
