<svg width="27" height="26" viewBox="0 0 27 26" fill="none" xmlns="http://www.w3.org/2000/svg">
<path fill-rule="evenodd" clip-rule="evenodd" d="M13.6667 15.5C18.7134 15.5 22.944 18.2675 24.0454 23H3.28805C4.38938 18.2675 8.62004 15.5 13.6667 15.5ZM8.33337 8C8.33337 5.2425 10.7254 3 13.6667 3C16.608 3 19 5.2425 19 8C19 10.7575 16.608 13 13.6667 13C10.7254 13 8.33337 10.7575 8.33337 8ZM18.6774 13.8412C20.4987 12.4675 21.6667 10.3625 21.6667 8C21.6667 3.8575 18.0854 0.5 13.6667 0.5C9.24804 0.5 5.66671 3.8575 5.66671 8C5.66671 10.3625 6.83471 12.4675 8.65605 13.8412C3.77738 15.56 0.333374 19.8063 0.333374 25.5H27C27 19.8063 23.556 15.56 18.6774 13.8412Z" fill="#0F0F10"/>
</svg>
