<svg width="345" height="244" viewBox="0 0 345 244" fill="none" xmlns="http://www.w3.org/2000/svg">
<rect width="345" height="244" rx="10" fill="#D6D6D6"/>
<g clip-path="url(#clip0_81_5)">
<path d="M236 145.356C236 143.282 234.529 141.614 232.571 141.108V119.673C232.571 112.272 226.42 106.251 218.857 106.251H216.479L214.771 103.118H215.246C217.772 103.118 219.817 101.115 219.817 98.6438C219.817 96.173 217.772 94.1696 215.246 94.1696H209.893L208.851 92.2594L232.987 68.6376C234.772 66.8898 234.772 64.0585 232.987 62.3108C231.201 60.5631 228.308 60.5631 226.522 62.3108L180.296 107.554L180.277 107.572L162.463 125.007L162.456 125.014L143.811 143.262L143.804 143.269L129.32 157.445L129.313 157.452L111.013 175.362C109.228 177.11 109.228 179.941 111.013 181.689C111.906 182.563 113.076 183 114.246 183C115.415 183 116.585 182.563 117.478 181.689L134.442 165.086H142.879C147.696 165.086 151.612 161.254 151.612 156.542V149.83H193.116V156.522C193.116 161.241 197.04 165.081 201.862 165.081H218.268C223.089 165.081 227.013 161.241 227.013 156.522V149.83H228H231.429C233.955 149.83 236 147.827 236 145.356ZM223.429 119.673V140.882H222.53C222.499 140.881 222.473 140.865 222.442 140.865H198.299L192.987 129.43C192.951 129.332 192.862 129.102 192.821 129.006C191.366 125.784 188.094 123.7 184.482 123.7H176.728L185.413 115.199H218.857C221.42 115.199 223.429 117.165 223.429 119.673ZM194.556 106.251L202.093 98.8735L206.116 106.251H194.556ZM159.172 140.882L167.618 132.616L184.339 132.333C184.379 132.445 184.473 132.687 184.522 132.797L188.268 140.882H159.172ZM217.871 156.133H202.259V149.83H217.871V156.133ZM112.571 149.83H116.732H122.308C124.835 149.83 126.879 147.827 126.879 145.356C126.879 142.885 124.835 140.882 122.308 140.882H121.304V119.673C121.304 117.207 123.353 115.199 125.875 115.199H157.692C160.219 115.199 162.263 113.196 162.263 110.725C162.263 108.254 160.219 106.251 157.692 106.251H138.898L147.871 89.8375C147.951 89.6889 148.022 89.536 148.089 89.3787C148.46 88.4568 149.344 87.8625 150.33 87.8625H185.625C188.152 87.8625 190.196 85.8592 190.196 83.3884C190.196 80.9175 188.152 78.9142 185.625 78.9142H150.33C145.67 78.9142 141.527 81.6122 139.701 85.8133L135.133 94.1696H129.759C127.232 94.1696 125.188 96.173 125.188 98.6438C125.188 101.115 127.232 103.118 129.759 103.118H130.241L128.529 106.251H125.875C118.313 106.251 112.161 112.272 112.161 119.673V140.963C109.837 141.176 108 143.028 108 145.356C108 147.827 110.045 149.83 112.571 149.83Z" fill="#7B7B7B"/>
</g>
<defs>
<clipPath id="clip0_81_5">
<rect width="128" height="122" fill="white" transform="translate(108 61)"/>
</clipPath>
</defs>
</svg>
