<svg width="119" height="116" viewBox="0 0 119 116" fill="none" xmlns="http://www.w3.org/2000/svg">
<g clip-path="url(#clip0_3_196)">
<path d="M57.2373 9.66666C45.3373 9.66666 35.8173 18.9467 35.8173 30.5467V39.8267C30.3433 38.6667 27.2047 37.7387 26.9667 37.5067C25.7767 37.0427 24.3933 37.7242 23.9173 38.8842C23.4413 40.0442 24.1405 41.4652 25.3305 41.9292C26.2825 41.9292 39.6105 46.5692 59.8405 46.5692C80.0705 46.5692 93.4282 41.9437 93.9042 41.7117C95.3322 41.4797 95.7933 40.0442 95.3173 38.8842C94.8413 37.7242 93.3836 37.0427 92.1936 37.5067C92.1936 37.5067 88.8913 38.6667 83.4173 39.8267V30.5467C83.4173 18.9467 73.8973 9.66666 61.9973 9.66666H57.2373ZM38.1973 46.5692C36.7693 46.5692 35.8173 47.4972 35.8173 48.8892V50.9917C34.8653 52.1517 33.4373 54.4862 33.4373 57.7342C33.4373 63.5342 36.5313 67.2172 38.1973 68.6091C38.6733 74.8732 42.0053 79.7452 45.3373 82.5292V90.2142C43.6713 93.9262 37.7213 96.2172 31.0573 98.7691C23.2033 101.785 14.1147 105.265 9.11673 112.689C8.64073 113.385 8.2931 115.304 8.7691 116C9.2451 116.696 10.3216 116.169 11.2736 116.169H45.5605C46.5125 116.169 47.2562 115.734 47.4942 114.574C47.7322 113.878 47.6727 112.95 47.1967 112.254C43.8647 107.614 42.6896 101.321 42.2136 98.7691C44.7658 97.4423 46.9866 95.8946 48.4611 93.8392C49.1859 94.2351 50.1709 94.7736 51.5848 95.3616C52.5765 95.7741 53.7021 96.1689 54.8573 96.5216L58.4273 102.249C58.4273 102.249 52.7005 109.209 52.7005 116.169H67.2036C67.2036 108.977 61.2536 102.249 61.2536 102.249L64.8236 96.5216C65.9353 96.1719 66.9911 95.7702 67.9473 95.3616C69.0788 94.8782 70.0433 94.3652 70.7736 93.9842C72.2462 96.1918 74.5667 97.8121 77.2442 99.2041C76.7682 101.756 75.5187 107.817 72.1867 112.689C71.4727 113.385 71.4876 114.313 71.9636 115.009C72.4396 115.705 73.1685 116.169 74.1205 116.169H108.407C109.359 116.169 110.934 116.696 111.172 116C111.648 115.304 110.743 113.385 110.267 112.689C105.269 105.265 96.2545 101.785 88.4005 98.7691C81.7365 96.2172 75.7865 94.1582 74.1205 90.2142V82.5292C77.4525 79.7452 81.0225 74.8732 81.2605 68.6091C82.9265 67.2172 86.0205 63.5342 86.0205 57.7342C86.0205 54.4862 84.5925 52.1517 83.6405 50.9917V48.8892C83.6405 47.4972 82.6885 46.5692 81.2605 46.5692C79.8325 46.5692 78.8805 47.4972 78.8805 48.8892V51.6442C78.8805 52.3402 79.1482 52.8477 79.6242 53.3117C79.6242 53.5437 81.2605 55.1822 81.2605 57.7342C81.2605 63.0702 77.9285 65.5642 77.6905 65.5642C76.9765 65.7962 76.5005 66.7532 76.5005 67.4492C76.5005 73.2492 73.1833 77.3961 70.3273 79.4842C69.8513 79.9482 69.3605 80.6731 69.3605 81.3691V89.4892C69.0669 89.6598 67.8807 90.3181 66.088 91.0842C64.0553 91.9527 61.4334 92.7517 59.8405 92.7517C58.2475 92.7517 55.6164 91.9566 53.5186 91.0842C51.7205 90.3363 50.4743 89.6865 50.0973 89.4892V81.3691C50.0973 80.6731 49.8445 79.9482 49.1305 79.4842C46.0365 77.3961 42.9573 73.2492 42.9573 67.4492C42.9573 66.7532 42.7045 66.0282 41.9905 65.5642C41.7525 65.3322 38.1973 63.0702 38.1973 57.7342C38.1973 55.4142 39.8336 53.5292 39.8336 53.5292C40.3096 53.0652 40.5773 52.6302 40.5773 51.9342V48.8892C40.5773 47.4972 39.6253 46.5692 38.1973 46.5692ZM66.4598 51.2092C65.5004 51.2853 63.4253 51.5862 61.9973 52.8042C60.0933 54.4282 59.8405 57.4442 59.8405 57.4442C59.8405 57.4442 63.1427 57.4732 65.0467 55.8492C66.9507 54.2252 66.9805 51.2092 66.9805 51.2092C66.9805 51.2092 66.7797 51.1838 66.4598 51.2092ZM56.0473 58.1692C52.9533 58.1692 50.3205 60.7212 50.3205 63.9692C50.3205 69.7691 55.7647 74.4091 57.9067 74.4091C58.6207 74.4091 59.3645 74.2062 59.8405 73.9742C60.3165 74.2062 61.0602 74.4091 61.7742 74.4091C63.9162 74.4091 69.3605 70.6972 69.3605 63.9692C69.3605 60.7212 66.7276 58.1692 63.6336 58.1692C62.2056 58.1692 60.7925 58.6187 59.8405 59.5467C58.8885 58.6187 57.4753 58.1692 56.0473 58.1692Z" fill="#A1A1A1"/>
</g>
<defs>
<clipPath id="clip0_3_196">
<rect width="119" height="116" fill="white"/>
</clipPath>
</defs>
</svg>
